<svg xmlns="http://www.w3.org/2000/svg" width="195" height="125" viewBox="0 0 195 125">
  <g id="Group_52417" data-name="Group 52417" transform="translate(-7129 -11889)">
    <g id="Group_52414" data-name="Group 52414" transform="translate(5256 7783.524)">
      <rect id="Rectangle_16170" data-name="Rectangle 16170" width="195" height="125" transform="translate(1873 4105.476)" fill="none"/>
      <path id="Background" d="M95.875,1181.071a5.307,5.307,0,0,1,0-10.614H66.307a5.307,5.307,0,1,1,0-10.614H96.633a5.307,5.307,0,0,0,0-10.614H77.679a5.307,5.307,0,1,1,0-10.614h30.326a5.307,5.307,0,1,1,0-10.614h74.3a5.307,5.307,0,1,1,0,10.614H151.978a5.307,5.307,0,1,1,0,10.614h16.679a5.307,5.307,0,0,1,0,10.614h-7.713c-3.7,0-6.691,2.376-6.691,5.307s4.549,5.307,4.549,5.307a5.307,5.307,0,0,1,0,10.614ZM177,1154.535a5.307,5.307,0,1,1,5.307,5.307A5.307,5.307,0,0,1,177,1154.535Z" transform="translate(1846.117 3013.013)" fill="#d3e8fe"/>
      <path id="Shape" d="M156.9,1186.975l-44.4,5.451a3.032,3.032,0,0,1-3.379-2.64l-6.836-55.67a1.517,1.517,0,0,1,1.32-1.69h.016l3.683-.413,2.978-.335,2.139-.24L151.857,1127l7.052,51.436.634,5.159A3.033,3.033,0,0,1,156.9,1186.975Z" transform="translate(1836.134 3013.255)" fill="#fff" stroke="#007aff" stroke-linecap="round" stroke-miterlimit="10" stroke-width="2"/>
      <path id="Rectangle" d="M150.981,1131.27l6.384,46.614.575,4.676a2.73,2.73,0,0,1-2.356,3.058h-.005L115.82,1190.5a2.729,2.729,0,0,1-3.03-2.391v-.005l-6.179-50.324a1.516,1.516,0,0,1,1.32-1.69l4.918-.6" transform="translate(1835.089 3012.222)" fill="#d3e8fe"/>
      <g id="Rectangle-2" transform="translate(1952.357 4129.641)">
        <path id="Path_33460" data-name="Path 33460" d="M168.738,1176.039H124.007a2.088,2.088,0,0,1-2.085-2.085v-57.62a2.088,2.088,0,0,1,2.085-2.085h34.539a2.072,2.072,0,0,1,1.474.607l10.192,10.189a2.071,2.071,0,0,1,.611,1.475v47.434A2.088,2.088,0,0,1,168.738,1176.039Z" transform="translate(-120.974 -1113.302)" fill="#fff"/>
        <path id="Path_33461" data-name="Path 33461" d="M123.7,1114.9a1.138,1.138,0,0,0-1.137,1.137v57.62a1.138,1.138,0,0,0,1.137,1.137h44.731a1.138,1.138,0,0,0,1.137-1.137v-47.434a1.129,1.129,0,0,0-.334-.8l-10.192-10.186a1.131,1.131,0,0,0-.8-.333H123.7m0-1.9h34.539a3.032,3.032,0,0,1,2.143.887l10.193,10.187a3.034,3.034,0,0,1,.889,2.145v47.434a3.033,3.033,0,0,1-3.033,3.033H123.7a3.033,3.033,0,0,1-3.033-3.033v-57.62A3.033,3.033,0,0,1,123.7,1113Z" transform="translate(-120.672 -1113)" fill="#007aff"/>
      </g>
      <path id="Shape-2" d="M170.672,1115.4v8.795a2.274,2.274,0,0,0,2.274,2.275h6.015" transform="translate(1819.593 3016.06)" fill="none" stroke="#007aff" stroke-linecap="round" stroke-linejoin="round" stroke-width="2"/>
      <path id="lines" d="M132.672,1130" transform="translate(1828.783 3012.53)" fill="none" stroke="#a4c3fe" stroke-linecap="round" stroke-linejoin="round" stroke-width="2.5"/>
    </g>
    <g id="Group_52416" data-name="Group 52416" transform="translate(8 10)">
      <g id="Group_52415" data-name="Group 52415" transform="translate(7217 11927)">
        <g id="Rectangle_22248" data-name="Rectangle 22248" transform="translate(2 2)" fill="none" stroke="#007aff" stroke-linecap="round" stroke-miterlimit="10" stroke-width="2">
          <rect width="14" height="14" rx="7" stroke="none"/>
          <rect x="1" y="1" width="12" height="12" rx="6" fill="none"/>
        </g>
        <line id="Line_5269" data-name="Line 5269" x2="3" y2="3" transform="translate(14 14)" fill="none" stroke="#007aff" stroke-linecap="round" stroke-miterlimit="10" stroke-width="2"/>
      </g>
    </g>
  </g>
</svg>
