<svg id="checkmark-circle-2" xmlns="http://www.w3.org/2000/svg" width="24" height="24" viewBox="0 0 24 24">
  <rect id="Rectangle_6532" data-name="Rectangle 6532" width="24" height="24" fill="#fff" opacity="0"/>
  <path id="Path_8597" data-name="Path 8597" d="M12,2A10,10,0,1,0,22,12,10,10,0,0,0,12,2Zm0,18a8,8,0,1,1,8-8A8,8,0,0,1,12,20Z" fill="#fff"/>
  <path id="Path_8598" data-name="Path 8598" d="M14.7,8.39l-3.78,5L9.29,11.28a1,1,0,1,0-1.58,1.23l2.43,3.11a1,1,0,0,0,1.58-.01l4.57-6a1.006,1.006,0,0,0-1.6-1.22Z" fill="#fff"/>
</svg>
